# xmcd
#
# Track frame offsets:
# 150
# 23308
# 34770
# 50280
# 64579
# 92349
# 110690
# 122400
# 148599
# 163210
# 179296
#
# Disc length: 2870 seconds
#
# Revision: 1
# Processed by: cddbd v1.5.2PL0 Copyright (c) Steve Scherf et al.
# Submitted via: CedeCatalogueitor 2.6.0.6 http://personales.ya.com/cdcatalogueitor
#
DISCID=840b340b
DTITLE=Máscara - Imaginarium
DYEAR=1900
DGENRE=
TTITLE0=Mosca
TTITLE1=PM
TTITLE2=Tor Bled Nam
TTITLE3=La Técica De Haito
TTITLE4=Suco
TTITLE5=Simplificar
TTITLE6=Sintonia
TTITLE7=AM
TTITLE8=La Quinta
TTITLE9=11/8
TTITLE10=Funcion De Despedida
EXTD=
EXTT0=
EXTT1=
EXTT2=
EXTT3=
EXTT4=
EXTT5=
EXTT6=
EXTT7=
EXTT8=
EXTT9=
EXTT10=
PLAYORDER=
